<?xml version="1.0" encoding="UTF-8"?><svg xmlns="http://www.w3.org/2000/svg" xmlns:xlink="http://www.w3.org/1999/xlink" fill-opacity="1" color-rendering="auto" color-interpolation="auto" text-rendering="auto" stroke="black" stroke-linecap="square" width="1044" stroke-miterlimit="10" shape-rendering="auto" stroke-opacity="1" fill="black" stroke-dasharray="none" font-weight="normal" stroke-width="1" height="862" font-family="'Dialog'" font-style="normal" stroke-linejoin="miter" font-size="12px" stroke-dashoffset="0" image-rendering="auto">
  <!--Generated by ySVG 2.5-->
  <defs id="genericDefs"/>
  <g>
    <defs id="defs1">
      <clipPath clipPathUnits="userSpaceOnUse" id="clipPath1">
        <path d="M0 0 L1044 0 L1044 862 L0 862 L0 0 Z"/>
      </clipPath>
      <clipPath clipPathUnits="userSpaceOnUse" id="clipPath2">
        <path d="M-15 -15 L1029 -15 L1029 847 L-15 847 L-15 -15 Z"/>
      </clipPath>
    </defs>
    <g fill="white" text-rendering="geometricPrecision" shape-rendering="geometricPrecision" transform="translate(15,15)" stroke="white">
      <rect x="-15" width="1044" height="862" y="-15" clip-path="url(#clipPath2)" stroke="none"/>
    </g>
    <g fill="rgb(255,204,0)" text-rendering="geometricPrecision" shape-rendering="geometricPrecision" transform="matrix(1,0,0,1,15,15)" stroke="rgb(255,204,0)">
      <rect x="297.4136" width="150.1309" height="38.1328" y="0" clip-path="url(#clipPath2)" stroke="none"/>
    </g>
    <g text-rendering="geometricPrecision" stroke-miterlimit="1.45" shape-rendering="geometricPrecision" transform="matrix(1,0,0,1,15,15)" stroke-linecap="butt">
      <rect fill="none" x="297.4136" width="150.1309" height="38.1328" y="0" clip-path="url(#clipPath2)"/>
      <text x="319.493" xml:space="preserve" y="23.6744" clip-path="url(#clipPath2)" font-family="'Space Grotesk'" stroke="none">How to distribute?</text>
    </g>
    <g fill="rgb(255,204,0)" text-rendering="geometricPrecision" shape-rendering="geometricPrecision" transform="matrix(1,0,0,1,15,15)" stroke="rgb(255,204,0)">
      <rect x="480.8159" width="96.9746" height="38.1328" y="88.1328" clip-path="url(#clipPath2)" stroke="none"/>
    </g>
    <g text-rendering="geometricPrecision" stroke-miterlimit="1.45" shape-rendering="geometricPrecision" transform="matrix(1,0,0,1,15,15)" stroke-linecap="butt">
      <rect fill="none" x="480.8159" width="96.9746" height="38.1328" y="88.1328" clip-path="url(#clipPath2)"/>
      <text x="503.8692" xml:space="preserve" y="111.8072" clip-path="url(#clipPath2)" font-family="'Space Grotesk'" stroke="none">On Paper</text>
    </g>
    <g fill="rgb(255,204,0)" text-rendering="geometricPrecision" shape-rendering="geometricPrecision" transform="matrix(1,0,0,1,15,15)" stroke="rgb(255,204,0)">
      <rect x="457.4077" width="143.791" height="38.1328" y="176.2656" clip-path="url(#clipPath2)" stroke="none"/>
    </g>
    <g text-rendering="geometricPrecision" stroke-miterlimit="1.45" shape-rendering="geometricPrecision" transform="matrix(1,0,0,1,15,15)" stroke-linecap="butt">
      <rect fill="none" x="457.4077" width="143.791" height="38.1328" y="176.2656" clip-path="url(#clipPath2)"/>
      <text x="480.4752" xml:space="preserve" y="199.94" clip-path="url(#clipPath2)" font-family="'Space Grotesk'" stroke="none">Printer Available?</text>
    </g>
    <g fill="rgb(255,204,0)" text-rendering="geometricPrecision" shape-rendering="geometricPrecision" transform="matrix(1,0,0,1,15,15)" stroke="rgb(255,204,0)">
      <rect x="666.9854" width="224.6094" height="38.1328" y="264.3984" clip-path="url(#clipPath2)" stroke="none"/>
    </g>
    <g text-rendering="geometricPrecision" stroke-miterlimit="1.45" shape-rendering="geometricPrecision" transform="matrix(1,0,0,1,15,15)" stroke-linecap="butt">
      <rect fill="none" x="666.9854" width="224.6094" height="38.1328" y="264.3984" clip-path="url(#clipPath2)"/>
      <text x="692.386" xml:space="preserve" y="288.0728" clip-path="url(#clipPath2)" font-family="'Space Grotesk'" stroke="none">Yes, local printer available now</text>
    </g>
    <g fill="rgb(255,204,0)" text-rendering="geometricPrecision" shape-rendering="geometricPrecision" transform="matrix(1,0,0,1,15,15)" stroke="rgb(255,204,0)">
      <rect x="167.0117" width="180.5527" height="38.1328" y="264.3984" clip-path="url(#clipPath2)" stroke="none"/>
    </g>
    <g text-rendering="geometricPrecision" stroke-miterlimit="1.45" shape-rendering="geometricPrecision" transform="matrix(1,0,0,1,15,15)" stroke-linecap="butt">
      <rect fill="none" x="167.0117" width="180.5527" height="38.1328" y="264.3984" clip-path="url(#clipPath2)"/>
      <text x="191.9901" xml:space="preserve" y="288.0728" clip-path="url(#clipPath2)" font-family="'Space Grotesk'" stroke="none">No, print later remotely</text>
    </g>
    <g fill="rgb(255,204,0)" text-rendering="geometricPrecision" shape-rendering="geometricPrecision" transform="matrix(1,0,0,1,15,15)" stroke="rgb(255,204,0)">
      <rect x="574.127" width="173.5098" height="38.1328" y="528.7969" clip-path="url(#clipPath2)" stroke="none"/>
    </g>
    <g text-rendering="geometricPrecision" stroke-miterlimit="1.45" shape-rendering="geometricPrecision" transform="matrix(1,0,0,1,15,15)" stroke-linecap="butt">
      <rect fill="none" x="574.127" width="173.5098" height="38.1328" y="528.7969" clip-path="url(#clipPath2)"/>
      <text x="598.6198" xml:space="preserve" y="552.4713" clip-path="url(#clipPath2)" font-family="'Space Grotesk'" stroke="none">No. copy to USB-Drive</text>
    </g>
    <g fill="rgb(255,204,0)" text-rendering="geometricPrecision" shape-rendering="geometricPrecision" transform="matrix(1,0,0,1,15,15)" stroke="rgb(255,204,0)">
      <rect x="662.8428" width="232.8945" height="38.1328" y="440.6641" clip-path="url(#clipPath2)" stroke="none"/>
    </g>
    <g text-rendering="geometricPrecision" stroke-miterlimit="1.45" shape-rendering="geometricPrecision" transform="matrix(1,0,0,1,15,15)" stroke-linecap="butt">
      <rect fill="none" x="662.8428" width="232.8945" height="38.1328" y="440.6641" clip-path="url(#clipPath2)"/>
      <text x="683.986" xml:space="preserve" y="464.3385" clip-path="url(#clipPath2)" font-family="'Space Grotesk'" stroke="none">Printer connected to this device?</text>
    </g>
    <g fill="rgb(255,204,0)" text-rendering="geometricPrecision" shape-rendering="geometricPrecision" transform="matrix(1,0,0,1,15,15)" stroke="rgb(255,204,0)">
      <rect x="689.2158" width="180.1484" height="38.1328" y="352.5312" clip-path="url(#clipPath2)" stroke="none"/>
    </g>
    <g text-rendering="geometricPrecision" stroke-miterlimit="1.45" shape-rendering="geometricPrecision" transform="matrix(1,0,0,1,15,15)" stroke-linecap="butt">
      <rect fill="none" x="689.2158" width="180.1484" height="38.1328" y="352.5312" clip-path="url(#clipPath2)"/>
      <text x="713.2841" xml:space="preserve" y="376.2057" clip-path="url(#clipPath2)" font-family="'Space Grotesk'" stroke="none">Generate PDF Template</text>
    </g>
    <g fill="rgb(255,204,0)" text-rendering="geometricPrecision" shape-rendering="geometricPrecision" transform="matrix(1,0,0,1,15,15)" stroke="rgb(255,204,0)">
      <rect x="857.6719" width="126.7812" height="38.1328" y="528.7969" clip-path="url(#clipPath2)" stroke="none"/>
    </g>
    <g text-rendering="geometricPrecision" stroke-miterlimit="1.45" shape-rendering="geometricPrecision" transform="matrix(1,0,0,1,15,15)" stroke-linecap="butt">
      <rect fill="none" x="857.6719" width="126.7812" height="38.1328" y="528.7969" clip-path="url(#clipPath2)"/>
      <text x="881.1445" xml:space="preserve" y="552.4713" clip-path="url(#clipPath2)" font-family="'Space Grotesk'" stroke="none">Yes. open PDF</text>
    </g>
    <g fill="rgb(255,204,0)" text-rendering="geometricPrecision" shape-rendering="geometricPrecision" transform="matrix(1,0,0,1,15,15)" stroke="rgb(255,204,0)">
      <rect x="90.3594" width="333.8574" height="38.1328" y="352.5312" clip-path="url(#clipPath2)" stroke="none"/>
    </g>
    <g text-rendering="geometricPrecision" stroke-miterlimit="1.45" shape-rendering="geometricPrecision" transform="matrix(1,0,0,1,15,15)" stroke-linecap="butt">
      <rect fill="none" x="90.3594" width="333.8574" height="38.1328" y="352.5312" clip-path="url(#clipPath2)"/>
      <text x="114.7281" xml:space="preserve" y="376.2057" clip-path="url(#clipPath2)" font-family="'Space Grotesk'" stroke="none">Notify about USB-Drives based on Share Selection</text>
    </g>
    <g fill="rgb(255,204,0)" text-rendering="geometricPrecision" shape-rendering="geometricPrecision" transform="matrix(1,0,0,1,15,15)" stroke="rgb(255,204,0)">
      <rect x="177.3301" width="159.916" height="38.1328" y="440.6641" clip-path="url(#clipPath2)" stroke="none"/>
    </g>
    <g text-rendering="geometricPrecision" stroke-miterlimit="1.45" shape-rendering="geometricPrecision" transform="matrix(1,0,0,1,15,15)" stroke-linecap="butt">
      <rect fill="none" x="177.3301" width="159.916" height="38.1328" y="440.6641" clip-path="url(#clipPath2)"/>
      <text x="202.4601" xml:space="preserve" y="464.3385" clip-path="url(#clipPath2)" font-family="'Space Grotesk'" stroke="none">Confirm USB-Drives</text>
    </g>
    <g fill="red" text-rendering="geometricPrecision" shape-rendering="geometricPrecision" transform="matrix(1,0,0,1,15,15)" stroke="red">
      <rect x="0" width="210.4648" height="38.1328" y="528.7969" clip-path="url(#clipPath2)" stroke="none"/>
    </g>
    <g text-rendering="geometricPrecision" stroke-miterlimit="1.45" shape-rendering="geometricPrecision" transform="matrix(1,0,0,1,15,15)" stroke-linecap="butt">
      <rect fill="none" x="0" width="210.4648" height="38.1328" y="528.7969" clip-path="url(#clipPath2)"/>
      <text x="24.1724" xml:space="preserve" y="552.4713" clip-path="url(#clipPath2)" font-family="'Space Grotesk'" stroke="none">Yes, redirect to ./enter-seed</text>
    </g>
    <g fill="rgb(255,204,0)" text-rendering="geometricPrecision" shape-rendering="geometricPrecision" transform="matrix(1,0,0,1,15,15)" stroke="rgb(255,204,0)">
      <rect x="260.4648" width="254.1113" height="38.1328" y="528.7969" clip-path="url(#clipPath2)" stroke="none"/>
    </g>
    <g text-rendering="geometricPrecision" stroke-miterlimit="1.45" shape-rendering="geometricPrecision" transform="matrix(1,0,0,1,15,15)" stroke-linecap="butt">
      <rect fill="none" x="260.4648" width="254.1113" height="38.1328" y="528.7969" clip-path="url(#clipPath2)"/>
      <text x="284.1405" xml:space="preserve" y="552.4713" clip-path="url(#clipPath2)" font-family="'Space Grotesk'" stroke="none">No strategy to follow! Warn the user</text>
    </g>
    <g fill="rgb(255,204,0)" text-rendering="geometricPrecision" shape-rendering="geometricPrecision" transform="matrix(1,0,0,1,15,15)" stroke="rgb(255,204,0)">
      <rect x="542.7529" width="236.2578" height="38.1328" y="616.9297" clip-path="url(#clipPath2)" stroke="none"/>
    </g>
    <g text-rendering="geometricPrecision" stroke-miterlimit="1.45" shape-rendering="geometricPrecision" transform="matrix(1,0,0,1,15,15)" stroke-linecap="butt">
      <rect fill="none" x="542.7529" width="236.2578" height="38.1328" y="616.9297" clip-path="url(#clipPath2)"/>
      <text x="565.6318" xml:space="preserve" y="640.6041" clip-path="url(#clipPath2)" font-family="'Space Grotesk'" stroke="none">Wait for user to attach USB-Drive</text>
    </g>
    <g fill="rgb(255,204,0)" text-rendering="geometricPrecision" shape-rendering="geometricPrecision" transform="matrix(1,0,0,1,15,15)" stroke="rgb(255,204,0)">
      <rect x="543.3184" width="235.127" height="38.1328" y="705.0625" clip-path="url(#clipPath2)" stroke="none"/>
    </g>
    <g text-rendering="geometricPrecision" stroke-miterlimit="1.45" shape-rendering="geometricPrecision" transform="matrix(1,0,0,1,15,15)" stroke-linecap="butt">
      <rect fill="none" x="543.3184" width="235.127" height="38.1328" y="705.0625" clip-path="url(#clipPath2)"/>
      <text x="568.7338" xml:space="preserve" y="728.7369" clip-path="url(#clipPath2)" font-family="'Space Grotesk'" stroke="none">Confirm drive and copy PDF over</text>
    </g>
    <g fill="rgb(255,204,0)" text-rendering="geometricPrecision" shape-rendering="geometricPrecision" transform="matrix(1,0,0,1,15,15)" stroke="rgb(255,204,0)">
      <rect x="829.0107" width="184.1035" height="38.1328" y="616.9297" clip-path="url(#clipPath2)" stroke="none"/>
    </g>
    <g text-rendering="geometricPrecision" stroke-miterlimit="1.45" shape-rendering="geometricPrecision" transform="matrix(1,0,0,1,15,15)" stroke-linecap="butt">
      <rect fill="none" x="829.0107" width="184.1035" height="38.1328" y="616.9297" clip-path="url(#clipPath2)"/>
      <text x="853.2805" xml:space="preserve" y="640.6041" clip-path="url(#clipPath2)" font-family="'Space Grotesk'" stroke="none">Wait until PDF is printed</text>
    </g>
    <g fill="red" text-rendering="geometricPrecision" shape-rendering="geometricPrecision" transform="matrix(1,0,0,1,15,15)" stroke="red">
      <rect x="829.7666" width="182.5918" height="38.1328" y="705.0625" clip-path="url(#clipPath2)" stroke="none"/>
    </g>
    <g text-rendering="geometricPrecision" stroke-miterlimit="1.45" shape-rendering="geometricPrecision" transform="matrix(1,0,0,1,15,15)" stroke-linecap="butt">
      <rect fill="none" x="829.7666" width="182.5918" height="38.1328" y="705.0625" clip-path="url(#clipPath2)"/>
      <text x="853.4905" xml:space="preserve" y="728.7369" clip-path="url(#clipPath2)" font-family="'Space Grotesk'" stroke="none">redirect to ./enter-seed</text>
    </g>
    <g fill="rgb(255,204,0)" text-rendering="geometricPrecision" shape-rendering="geometricPrecision" transform="matrix(1,0,0,1,15,15)" stroke="rgb(255,204,0)">
      <rect x="563.7852" width="194.1934" height="38.1328" y="793.1953" clip-path="url(#clipPath2)" stroke="none"/>
    </g>
    <g text-rendering="geometricPrecision" stroke-miterlimit="1.45" shape-rendering="geometricPrecision" transform="matrix(1,0,0,1,15,15)" stroke-linecap="butt">
      <rect fill="none" x="563.7852" width="194.1934" height="38.1328" y="793.1953" clip-path="url(#clipPath2)"/>
      <text x="587.4058" xml:space="preserve" y="816.8697" clip-path="url(#clipPath2)" font-family="'Space Grotesk'" stroke="none">Wait for unmount of drive</text>
    </g>
    <g fill="red" text-rendering="geometricPrecision" shape-rendering="geometricPrecision" transform="matrix(1,0,0,1,15,15)" stroke="red">
      <rect x="282.2881" width="210.4648" height="38.1328" y="616.9297" clip-path="url(#clipPath2)" stroke="none"/>
    </g>
    <g text-rendering="geometricPrecision" stroke-miterlimit="1.45" shape-rendering="geometricPrecision" transform="matrix(1,0,0,1,15,15)" stroke-linecap="butt">
      <rect fill="none" x="282.2881" width="210.4648" height="38.1328" y="616.9297" clip-path="url(#clipPath2)"/>
      <text x="306.4605" xml:space="preserve" y="640.6041" clip-path="url(#clipPath2)" font-family="'Space Grotesk'" stroke="none">Yes, redirect to ./enter-seed</text>
    </g>
    <g fill="rgb(255,204,0)" text-rendering="geometricPrecision" shape-rendering="geometricPrecision" transform="matrix(1,0,0,1,15,15)" stroke="rgb(255,204,0)">
      <rect x="167.1675" width="91.7305" height="38.1328" y="88.1328" clip-path="url(#clipPath2)" stroke="none"/>
    </g>
    <g text-rendering="geometricPrecision" stroke-miterlimit="1.45" shape-rendering="geometricPrecision" transform="matrix(1,0,0,1,15,15)" stroke-linecap="butt">
      <rect fill="none" x="167.1675" width="91.7305" height="38.1328" y="88.1328" clip-path="url(#clipPath2)"/>
      <text x="190.9827" xml:space="preserve" y="111.8072" clip-path="url(#clipPath2)" font-family="'Space Grotesk'" stroke="none">Digitally</text>
    </g>
    <g fill="rgb(255,204,0)" text-rendering="geometricPrecision" shape-rendering="geometricPrecision" transform="matrix(1,0,0,1,15,15)" stroke="rgb(255,204,0)">
      <rect x="308.8979" width="121.918" height="38.1328" y="88.1328" clip-path="url(#clipPath2)" stroke="none"/>
    </g>
    <g text-rendering="geometricPrecision" stroke-miterlimit="1.45" shape-rendering="geometricPrecision" transform="matrix(1,0,0,1,15,15)" stroke-linecap="butt">
      <rect fill="none" x="308.8979" width="121.918" height="38.1328" y="88.1328" clip-path="url(#clipPath2)"/>
      <text x="332.2369" xml:space="preserve" y="111.8072" clip-path="url(#clipPath2)" font-family="'Space Grotesk'" stroke="none">Store on Disk</text>
      <path fill="none" d="M372.479 38.1328 L372.479 63.1328 L529.3032 63.1328 L529.3032 83.1328" clip-path="url(#clipPath2)"/>
      <path d="M529.3032 87.1328 L535.3032 75.1328 L529.3032 87.1328 L523.3032 75.1328 Z" clip-path="url(#clipPath2)" stroke="none"/>
      <path fill="none" stroke-miterlimit="10" d="M529.3032 87.1328 L535.3032 75.1328 L529.3032 87.1328 L523.3032 75.1328 Z" clip-path="url(#clipPath2)" stroke-linecap="square"/>
      <path fill="none" d="M529.3032 126.2656 L529.3032 171.2656" clip-path="url(#clipPath2)"/>
      <path d="M529.3032 175.2656 L535.3032 163.2656 L529.3032 175.2656 L523.3032 163.2656 Z" clip-path="url(#clipPath2)" stroke="none"/>
      <path fill="none" stroke-miterlimit="10" d="M529.3032 175.2656 L535.3032 163.2656 L529.3032 175.2656 L523.3032 163.2656 Z" clip-path="url(#clipPath2)" stroke-linecap="square"/>
      <path fill="none" d="M529.3032 214.3984 L529.3032 239.3984 L779.29 239.3984 L779.29 259.3984" clip-path="url(#clipPath2)"/>
      <path d="M779.29 263.3984 L785.29 251.3984 L779.29 263.3984 L773.29 251.3984 Z" clip-path="url(#clipPath2)" stroke="none"/>
      <path fill="none" stroke-miterlimit="10" d="M779.29 263.3984 L785.29 251.3984 L779.29 263.3984 L773.29 251.3984 Z" clip-path="url(#clipPath2)" stroke-linecap="square"/>
      <path fill="none" d="M529.3032 214.3984 L529.3032 239.3984 L257.2881 239.3984 L257.2881 259.3984" clip-path="url(#clipPath2)"/>
      <path d="M257.2881 263.3984 L263.2881 251.3984 L257.2881 263.3984 L251.2881 251.3984 Z" clip-path="url(#clipPath2)" stroke="none"/>
      <path fill="none" stroke-miterlimit="10" d="M257.2881 263.3984 L263.2881 251.3984 L257.2881 263.3984 L251.2881 251.3984 Z" clip-path="url(#clipPath2)" stroke-linecap="square"/>
      <path fill="none" d="M779.29 478.7969 L779.29 503.7969 L660.8818 503.7969 L660.8818 523.7969" clip-path="url(#clipPath2)"/>
      <path d="M660.8818 527.7969 L666.8818 515.7969 L660.8818 527.7969 L654.8818 515.7969 Z" clip-path="url(#clipPath2)" stroke="none"/>
      <path fill="none" stroke-miterlimit="10" d="M660.8818 527.7969 L666.8818 515.7969 L660.8818 527.7969 L654.8818 515.7969 Z" clip-path="url(#clipPath2)" stroke-linecap="square"/>
      <path fill="none" d="M779.29 302.5312 L779.29 347.5312" clip-path="url(#clipPath2)"/>
      <path d="M779.29 351.5312 L785.29 339.5312 L779.29 351.5312 L773.29 339.5312 Z" clip-path="url(#clipPath2)" stroke="none"/>
      <path fill="none" stroke-miterlimit="10" d="M779.29 351.5312 L785.29 339.5312 L779.29 351.5312 L773.29 339.5312 Z" clip-path="url(#clipPath2)" stroke-linecap="square"/>
      <path fill="none" d="M779.29 390.6641 L779.29 435.6641" clip-path="url(#clipPath2)"/>
      <path d="M779.29 439.6641 L785.29 427.6641 L779.29 439.6641 L773.29 427.6641 Z" clip-path="url(#clipPath2)" stroke="none"/>
      <path fill="none" stroke-miterlimit="10" d="M779.29 439.6641 L785.29 427.6641 L779.29 439.6641 L773.29 427.6641 Z" clip-path="url(#clipPath2)" stroke-linecap="square"/>
      <path fill="none" d="M779.29 478.7969 L779.29 503.7969 L921.0625 503.7969 L921.0625 523.7969" clip-path="url(#clipPath2)"/>
      <path d="M921.0625 527.7969 L927.0625 515.7969 L921.0625 527.7969 L915.0625 515.7969 Z" clip-path="url(#clipPath2)" stroke="none"/>
      <path fill="none" stroke-miterlimit="10" d="M921.0625 527.7969 L927.0625 515.7969 L921.0625 527.7969 L915.0625 515.7969 Z" clip-path="url(#clipPath2)" stroke-linecap="square"/>
      <path fill="none" d="M257.2881 302.5312 L257.2881 347.5312" clip-path="url(#clipPath2)"/>
      <path d="M257.2881 351.5312 L263.2881 339.5312 L257.2881 351.5312 L251.2881 339.5312 Z" clip-path="url(#clipPath2)" stroke="none"/>
      <path fill="none" stroke-miterlimit="10" d="M257.2881 351.5312 L263.2881 339.5312 L257.2881 351.5312 L251.2881 339.5312 Z" clip-path="url(#clipPath2)" stroke-linecap="square"/>
      <path fill="none" d="M257.2881 390.6641 L257.2881 435.6641" clip-path="url(#clipPath2)"/>
      <path d="M257.2881 439.6641 L263.2881 427.6641 L257.2881 439.6641 L251.2881 427.6641 Z" clip-path="url(#clipPath2)" stroke="none"/>
      <path fill="none" stroke-miterlimit="10" d="M257.2881 439.6641 L263.2881 427.6641 L257.2881 439.6641 L251.2881 427.6641 Z" clip-path="url(#clipPath2)" stroke-linecap="square"/>
      <path fill="none" d="M257.2881 478.7969 L257.2881 503.7969 L105.2324 503.7969 L105.2324 523.7969" clip-path="url(#clipPath2)"/>
      <path d="M105.2324 527.7969 L111.2324 515.7969 L105.2324 527.7969 L99.2324 515.7969 Z" clip-path="url(#clipPath2)" stroke="none"/>
      <path fill="none" stroke-miterlimit="10" d="M105.2324 527.7969 L111.2324 515.7969 L105.2324 527.7969 L99.2324 515.7969 Z" clip-path="url(#clipPath2)" stroke-linecap="square"/>
      <path fill="none" d="M257.2881 478.7969 L257.2881 503.7969 L387.5205 503.7969 L387.5205 523.7969" clip-path="url(#clipPath2)"/>
      <path d="M387.5205 527.7969 L393.5205 515.7969 L387.5205 527.7969 L381.5205 515.7969 Z" clip-path="url(#clipPath2)" stroke="none"/>
      <path fill="none" stroke-miterlimit="10" d="M387.5205 527.7969 L393.5205 515.7969 L387.5205 527.7969 L381.5205 515.7969 Z" clip-path="url(#clipPath2)" stroke-linecap="square"/>
      <path fill="none" d="M660.8818 566.9297 L660.8818 611.9297" clip-path="url(#clipPath2)"/>
      <path d="M660.8818 615.9297 L666.8818 603.9297 L660.8818 615.9297 L654.8818 603.9297 Z" clip-path="url(#clipPath2)" stroke="none"/>
      <path fill="none" stroke-miterlimit="10" d="M660.8818 615.9297 L666.8818 603.9297 L660.8818 615.9297 L654.8818 603.9297 Z" clip-path="url(#clipPath2)" stroke-linecap="square"/>
      <path fill="none" d="M660.8818 655.0625 L660.8818 700.0625" clip-path="url(#clipPath2)"/>
      <path d="M660.8818 704.0625 L666.8818 692.0625 L660.8818 704.0625 L654.8818 692.0625 Z" clip-path="url(#clipPath2)" stroke="none"/>
      <path fill="none" stroke-miterlimit="10" d="M660.8818 704.0625 L666.8818 692.0625 L660.8818 704.0625 L654.8818 692.0625 Z" clip-path="url(#clipPath2)" stroke-linecap="square"/>
      <path fill="none" d="M921.0625 566.9297 L921.0625 611.9297" clip-path="url(#clipPath2)"/>
      <path d="M921.0625 615.9297 L927.0625 603.9297 L921.0625 615.9297 L915.0625 603.9297 Z" clip-path="url(#clipPath2)" stroke="none"/>
      <path fill="none" stroke-miterlimit="10" d="M921.0625 615.9297 L927.0625 603.9297 L921.0625 615.9297 L915.0625 603.9297 Z" clip-path="url(#clipPath2)" stroke-linecap="square"/>
      <path fill="none" d="M921.0625 655.0625 L921.0625 700.0625" clip-path="url(#clipPath2)"/>
      <path d="M921.0625 704.0625 L927.0625 692.0625 L921.0625 704.0625 L915.0625 692.0625 Z" clip-path="url(#clipPath2)" stroke="none"/>
      <path fill="none" stroke-miterlimit="10" d="M921.0625 704.0625 L927.0625 692.0625 L921.0625 704.0625 L915.0625 692.0625 Z" clip-path="url(#clipPath2)" stroke-linecap="square"/>
      <path fill="none" d="M660.8818 743.1953 L660.8818 788.1953" clip-path="url(#clipPath2)"/>
      <path d="M660.8818 792.1953 L666.8818 780.1953 L660.8818 792.1953 L654.8818 780.1953 Z" clip-path="url(#clipPath2)" stroke="none"/>
      <path fill="none" stroke-miterlimit="10" d="M660.8818 792.1953 L666.8818 780.1953 L660.8818 792.1953 L654.8818 780.1953 Z" clip-path="url(#clipPath2)" stroke-linecap="square"/>
      <path fill="none" d="M757.9785 812.2617 L804.0107 812.2617 L804.0107 635.9961 L823.9619 635.9961" clip-path="url(#clipPath2)"/>
      <path d="M827.9619 635.9961 L815.9619 629.9961 L827.9619 635.9961 L815.9619 641.9961 Z" clip-path="url(#clipPath2)" stroke="none"/>
      <path fill="none" stroke-miterlimit="10" d="M827.9619 635.9961 L815.9619 629.9961 L827.9619 635.9961 L815.9619 641.9961 Z" clip-path="url(#clipPath2)" stroke-linecap="square"/>
      <path fill="none" d="M387.5205 566.9297 L387.5205 611.9297" clip-path="url(#clipPath2)"/>
      <path d="M387.5205 615.9297 L393.5205 603.9297 L387.5205 615.9297 L381.5205 603.9297 Z" clip-path="url(#clipPath2)" stroke="none"/>
      <path fill="none" stroke-miterlimit="10" d="M387.5205 615.9297 L393.5205 603.9297 L387.5205 615.9297 L381.5205 603.9297 Z" clip-path="url(#clipPath2)" stroke-linecap="square"/>
      <path fill="none" d="M372.479 38.1328 L372.479 63.1328 L213.0327 63.1328 L213.0327 83.1328" clip-path="url(#clipPath2)"/>
      <path d="M213.0327 87.1328 L219.0327 75.1328 L213.0327 87.1328 L207.0327 75.1328 Z" clip-path="url(#clipPath2)" stroke="none"/>
      <path fill="none" stroke-miterlimit="10" d="M213.0327 87.1328 L219.0327 75.1328 L213.0327 87.1328 L207.0327 75.1328 Z" clip-path="url(#clipPath2)" stroke-linecap="square"/>
      <path fill="none" d="M167.1265 107.1992 L125.1855 107.1992 L125.1855 347.5013" clip-path="url(#clipPath2)"/>
      <path d="M125.1855 351.5013 L131.1855 339.5013 L125.1855 351.5013 L119.1855 339.5013 Z" clip-path="url(#clipPath2)" stroke="none"/>
      <path fill="none" stroke-miterlimit="10" d="M125.1855 351.5013 L131.1855 339.5013 L125.1855 351.5013 L119.1855 339.5013 Z" clip-path="url(#clipPath2)" stroke-linecap="square"/>
      <path fill="none" d="M372.479 38.1328 L372.479 63.1328 L369.8569 63.1328 L369.8569 83.1328" clip-path="url(#clipPath2)"/>
      <path d="M369.8569 87.1328 L375.8569 75.1328 L369.8569 87.1328 L363.8569 75.1328 Z" clip-path="url(#clipPath2)" stroke="none"/>
      <path fill="none" stroke-miterlimit="10" d="M369.8569 87.1328 L375.8569 75.1328 L369.8569 87.1328 L363.8569 75.1328 Z" clip-path="url(#clipPath2)" stroke-linecap="square"/>
      <path fill="none" d="M430.8159 107.1992 L444.1118 107.1992 L444.1118 523.7711" clip-path="url(#clipPath2)"/>
      <path d="M444.1118 527.7711 L450.1118 515.7711 L444.1118 527.7711 L438.1118 515.7711 Z" clip-path="url(#clipPath2)" stroke="none"/>
      <path fill="none" stroke-miterlimit="10" d="M444.1118 527.7711 L450.1118 515.7711 L444.1118 527.7711 L438.1118 515.7711 Z" clip-path="url(#clipPath2)" stroke-linecap="square"/>
    </g>
  </g>
</svg>
